<svg xmlns="http://www.w3.org/2000/svg" id="network-1" fill="none" stroke-miterlimit="10" xmlns:xlink="http://www.w3.org/1999/xlink" stroke-linecap="square" viewBox="0 0 960 540">
    <symbol id="line-manager">
        <path id="path16" fill="#ececec" d="M226.2 351.3c4.5 0 8.2-3.6 8.2-8.2h32.8c0 4.8 3.7 8.4 8.2 8.4V384c-4.5 0-8.2 3.8-8.2 8.3h-32.8c0-4.5-3.7-8.2-8.2-8.2z"></path>
    </symbol>
    <symbol id="grunt">
        <path id="path8320" fill="#ececec" d="M126.2 488.4l24.6-24.5 24.6 24.3-24.6 24.6z"></path>
    </symbol>
    <symbol id="director">
        <path id="path96" fill="#ececec" d="M587.7 207.8c0-13.6 11-24.6 24.6-24.6 6.5 0 12.8 2.6 17.4 7.2 4.6 4.6 7.2 11 7.2 17.4 0 13.6-11 24.6-24.8 24.6-13.6 0-24.6-11-24.6-24.6z"></path>
    </symbol>
    <g id="nodes">
        <use id="person01" width="100%" height="100%" transform="translate(60.995 -306.607)" xlink:href="#line-manager"></use>
        <use id="person02" width="100%" height="100%" transform="translate(226.462 -323.372)" xlink:href="#line-manager"></use>
        <use id="person03" width="100%" height="100%" transform="translate(392.116 -224.238)" xlink:href="#line-manager"></use>
        <use id="person04" width="100%" height="100%" transform="translate(533.528 -72.62)" xlink:href="#line-manager"></use>
        <use id="person05" width="100%" height="100%" transform="translate(352.21 -114.898)" xlink:href="#line-manager"></use>
        <use id="person06" width="100%" height="100%" transform="translate(-74.4 -102.506)" xlink:href="#line-manager"></use>
        <use id="person07" width="100%" height="100%" transform="translate(492.303 -68.673)" xlink:href="#grunt"></use>
        <use id="person08" width="100%" height="100%" transform="translate(584.69 -274.96)" xlink:href="#grunt"></use>
        <use id="person09" width="100%" height="100%" transform="translate(255.214 -352.227)" xlink:href="#grunt"></use>
        <use id="person10" width="100%" height="100%" transform="translate(137.127 -194.778)" xlink:href="#grunt"></use>
        <use id="person11" width="100%" height="100%" transform="translate(334.667 -182.386)" xlink:href="#grunt"></use>
        <use id="person12" width="100%" height="100%" transform="translate(271.25 -4.528)" xlink:href="#grunt"></use>
        <use id="person13" width="100%" height="100%" transform="translate(-95.44 -54.862)" xlink:href="#director"></use>
        <use id="person14" width="100%" height="100%" transform="translate(-10.154 286.277)" xlink:href="#director"></use>
        <use id="person15" width="100%" height="100%" transform="translate(-136.26 184.227)" xlink:href="#director"></use>
        <use id="person16" width="100%" height="100%" transform="translate(-273.298 171.836)" xlink:href="#director"></use>
        <use id="person17" width="100%" height="100%" transform="translate(-215.712 58.123)" xlink:href="#director"></use>
        <use id="person18" width="100%" height="100%" transform="translate(-353.48 -54.133)" xlink:href="#director"></use>
    </g>
    <g id="wires">
        <path id="path80-3" d="M176.5 239.7c0-15 16.2-21.5 32.4-30 16-8.3 32.3-18.6 32.3-37.3"></path>
        <path id="path84-9" d="M259.5 180c0 22 6.8 33 13.7 44 6.8 11 13.7 22 13.7 44"></path>
        <path id="path88-6" d="M277.6 136c0-14 8.4-22 16.7-28 8.3-6 16.6-10.3 16.6-20.6"></path>
        <path id="path92-5" d="M336.6 61.7c35 0 69.8 24.3 69.8 48.6"></path>
        <path id="path96-0" d="M336.6 61.7c28.6 0 43-4 57.3-8 14.2-4 28.5-8.2 57.2-8.2"></path>
        <path id="path100-2" d="M432 136c22.5 0 45-32.4 45-64.7"></path>
        <path id="path104-1" d="M432 136c14.8 0 22.2 4.5 29.5 9 7.4 4.7 14.8 9.2 29.5 9.2"></path>
        <path id="path108-6" d="M312.6 293.6l59-28.2"></path>
        <path id="path112-2" d="M423 265.4c38.6 0 58-3 77.3-6.2 19.4-3 38.7-6.2 77.4-6.2"></path>
        <path id="path116-5" d="M415.4 283.6c0 11.7 22 23.3 44 23.3"></path>
        <path id="path120" d="M511 307c16.6 0 25-13.6 33.3-27 8.4-13.6 16.7-27 33.4-27"></path>
        <path id="path8426" d="M397.2 239.7c0-19.5 2.3-29.2 4.6-39 2.3-9.7 4.6-19.5 4.6-39"></path>
        <path id="path8430" d="M415.4 247.2c41.6 0 83-37.4 83-74.8"></path>
        <path id="path8434" d="M379 247.3c0-46.6-47-93-93.8-93"></path>
        <path id="path136" d="M502.6 45.5c28.6 0 43 24.7 57.3 49.4 14.2 24.6 28.5 49.3 57 49.3"></path>
        <path id="path140" d="M542.4 154.2c18.7 0 28-2.5 37.4-5 9.3-2.4 18.7-5 37.3-5"></path>
        <path id="path144" d="M535 172.4c0 15.6 17 24.3 34.2 31.2 17 7 34.3 11.8 34.3 23.7"></path>
        <path id="path148" d="M629.2 253c19.8 0 29.7-9.8 39.6-19.5 10-9.7 19.8-19.5 39.6-19.5"></path>
        <path id="path152" d="M734 188.3c0-22-32.7-44-65.4-44"></path>
        <path id="path156" d="M759.8 214c11.8 0 23.7 27.8 23.7 55.6"></path>
        <path id="path160" d="M668.5 419.8c57.5 0 115-49.4 115-98.8"></path>
        <path id="path164" d="M364 380.2c21.8 0 32.7 3.3 43.6 6.5 11 3.3 21.8 6.5 43.6 6.5"></path>
        <path id="path168" d="M502.6 393.2c28.6 0 43 6.7 57.3 13.3 14.2 6.6 28.5 13.3 57 13.3"></path>
        <path id="path172" d="M642.8 394c0-28.8-9.8-43.2-19.6-57.6-10-14.5-19.7-29-19.7-57.7"></path>
        <path id="path176" d="M202.2 265.4c14.8 0 22 7 29.5 14 7.4 7.2 14.7 14.2 29.5 14.2"></path>
        <path id="path180" d="M287 319.4l33 42.7"></path>
        <path id="path184" d="M397.2 291c0 19.2 20 28.8 39.8 38.3 20 9.6 39.8 19 39.8 38.2"></path>
        <path id="path188" d="M476.8 367.5c0-8.7 2-13 4.2-17.4 2-4.3 4.2-8.6 4.2-17.4"></path>
        <path id="path192" d="M495 375c0-26 27.2-40 54.3-52 27-12 54.2-22 54.2-44.4"></path>
        <path id="path196" d="M423 459.6c0-13.4-21.2-20-42.4-26.8-21-6.7-42.3-13.4-42.3-26.8"></path>
        <path id="path200" d="M448.7 485.3c14 0 28.2-33.2 28.2-66.4"></path>
        <path id="path204" d="M621.2 476.3c0-9.6 5.4-15.3 10.8-19.2 5.4-3.7 10.8-5.7 10.8-11.5"></path>
        <path id="path208" d="M584.8 476.3c0-16.2-22.4-24.3-44.8-32.5-22.5-8-45-16.2-45-32.4"></path>
        <path id="path212" d="M629.2 253c32 0 48.2 10.5 64.3 21 16 10.7 32 21.3 64.3 21.3"></path>
    </g>
</svg>
