<svg xmlns="http://www.w3.org/2000/svg" id="network-2" fill="none" stroke-miterlimit="10" xmlns:xlink="http://www.w3.org/1999/xlink" stroke-linecap="square" viewBox="0 0 960 540">
    <defs>
        <marker id="arrowhead" orient="auto" overflow="visible">
            <path fill="#e06666" stroke="#e06666" stroke-width="0" d="M-10.7-4.4L1.3 0l-12 4.4c2-2.6 2-6.2 0-8.8z"></path>
        </marker>
    </defs>
    <g id="force-field" stroke-dasharray="2.4 4.8">
        <path id="path8" marker-end="url(#arrowhead)" d="M87.5 268l418-411"></path>
        <path id="path14" marker-end="url(#arrowhead)" d="M109.2 289.8l418-411"></path>
        <path id="path20" marker-end="url(#arrowhead)" d="M131 311.5l418-411"></path>
        <path id="path26" marker-end="url(#arrowhead)" d="M152.5 333.2l418.2-411"></path>
        <path id="path32" marker-end="url(#arrowhead)" d="M174.2 355l418-411.2"></path>
        <path id="path38" marker-end="url(#arrowhead)" d="M196 376.5l418-411"></path>
        <path id="path44" marker-end="url(#arrowhead)" d="M217.6 398.2l418-411"></path>
        <path id="path80" marker-end="url(#arrowhead)" d="M347.7 528.3l418-411"></path>
        <path id="path86" marker-end="url(#arrowhead)" d="M369.4 550l418-411"></path>
        <path id="path92" marker-end="url(#arrowhead)" d="M391 571.7l418.2-411"></path>
        <path id="path98" marker-end="url(#arrowhead)" d="M412.7 593.4l418.2-411"></path>
        <path id="path104" marker-end="url(#arrowhead)" d="M434.4 615l418-411"></path>
        <path id="path110" marker-end="url(#arrowhead)" d="M456 636.7l418.2-411"></path>
        <path id="path116" marker-end="url(#arrowhead)" d="M477.8 658.4l418-411"></path>
        <path id="path56" marker-end="url(#arrowhead)" d="M261 441.6l418-411"></path>
        <path id="path62" marker-end="url(#arrowhead)" d="M282.6 463.3l418.2-411"></path>
        <path id="path68" marker-end="url(#arrowhead)" d="M304.3 485l418-411"></path>
        <path id="path50" marker-end="url(#arrowhead)" d="M239.3 420l418-411.2"></path>
        <path id="path74" marker-end="url(#arrowhead)" d="M326 506.6l418-411"></path>
    </g>
    <g id="wires">
        <path id="path80-3" d="M176.5 239.7c0-15 16.2-21.5 32.4-30 16-8.3 32.3-18.6 32.3-37.3"></path>
        <path id="path84-9" d="M259.5 180c0 22 6.8 33 13.7 44 6.8 11 13.7 22 13.7 44"></path>
        <path id="path88-6" d="M277.6 136c0-14 8.4-22 16.7-28 8.3-6 16.6-10.3 16.6-20.6"></path>
        <path id="path92-5" d="M336.6 61.7c35 0 69.8 24.3 69.8 48.6"></path>
        <path id="path96-0" d="M336.6 61.7c28.6 0 43-4 57.3-8 14.2-4 28.5-8.2 57.2-8.2"></path>
        <path id="path100-2" d="M432 136c22.5 0 45-32.4 45-64.7"></path>
        <path id="path104-1" d="M432 136c14.8 0 22.2 4.5 29.5 9 7.4 4.7 14.8 9.2 29.5 9.2"></path>
        <path id="path108-6" d="M312.6 293.6l59-28.2"></path>
        <path id="path112-2" d="M423 265.4c38.6 0 58-3 77.3-6.2 19.4-3 38.7-6.2 77.4-6.2"></path>
        <path id="path116-5" d="M415.4 283.6c0 11.7 22 23.3 44 23.3"></path>
        <path id="path120" d="M511 307c16.6 0 25-13.6 33.3-27 8.4-13.6 16.7-27 33.4-27"></path>
        <path id="path8426" d="M397.2 239.7c0-19.5 2.3-29.2 4.6-39 2.3-9.7 4.6-19.5 4.6-39"></path>
        <path id="path8430" d="M415.4 247.2c41.6 0 83-37.4 83-74.8"></path>
        <path id="path8434" d="M379 247.3c0-46.6-47-93-93.8-93"></path>
        <path id="path136" d="M502.6 45.5c28.6 0 43 24.7 57.3 49.4 14.2 24.6 28.5 49.3 57 49.3"></path>
        <path id="path140" d="M542.4 154.2c18.7 0 28-2.5 37.4-5 9.3-2.4 18.7-5 37.3-5"></path>
        <path id="path144" d="M535 172.4c0 15.6 17 24.3 34.2 31.2 17 7 34.3 11.8 34.3 23.7"></path>
        <path id="path148" d="M629.2 253c19.8 0 29.7-9.8 39.6-19.5 10-9.7 19.8-19.5 39.6-19.5"></path>
        <path id="path152" d="M734 188.3c0-22-32.7-44-65.4-44"></path>
        <path id="path156" d="M759.8 214c11.8 0 23.7 27.8 23.7 55.6"></path>
        <path id="path160" d="M668.5 419.8c57.5 0 115-49.4 115-98.8"></path>
        <path id="path164" d="M364 380.2c21.8 0 32.7 3.3 43.6 6.5 11 3.3 21.8 6.5 43.6 6.5"></path>
        <path id="path168" d="M502.6 393.2c28.6 0 43 6.7 57.3 13.3 14.2 6.6 28.5 13.3 57 13.3"></path>
        <path id="path172" d="M642.8 394c0-28.8-9.8-43.2-19.6-57.6-10-14.5-19.7-29-19.7-57.7"></path>
        <path id="path176" d="M202.2 265.4c14.8 0 22 7 29.5 14 7.4 7.2 14.7 14.2 29.5 14.2"></path>
        <path id="path180" d="M287 319.4l33 42.7"></path>
        <path id="path184" d="M397.2 291c0 19.2 20 28.8 39.8 38.3 20 9.6 39.8 19 39.8 38.2"></path>
        <path id="path188" d="M476.8 367.5c0-8.7 2-13 4.2-17.4 2-4.3 4.2-8.6 4.2-17.4"></path>
        <path id="path192" d="M495 375c0-26 27.2-40 54.3-52 27-12 54.2-22 54.2-44.4"></path>
        <path id="path196" d="M423 459.6c0-13.4-21.2-20-42.4-26.8-21-6.7-42.3-13.4-42.3-26.8"></path>
        <path id="path200" d="M448.7 485.3c14 0 28.2-33.2 28.2-66.4"></path>
        <path id="path204" d="M621.2 476.3c0-9.6 5.4-15.3 10.8-19.2 5.4-3.7 10.8-5.7 10.8-11.5"></path>
        <path id="path208" d="M584.8 476.3c0-16.2-22.4-24.3-44.8-32.5-22.5-8-45-16.2-45-32.4"></path>
        <path id="path212" d="M629.2 253c32 0 48.2 10.5 64.3 21 16 10.7 32 21.3 64.3 21.3"></path>
    </g>
    <g id="nodes">
        <g style="transform: rotateZ(22.1184deg);">
            <path fill="#ececec" stroke="#000" d="M283.8 65.5c0-18 14.7-32.8 32.8-32.8 8.7 0 17 3.5 23.2 9.6 6.2 6.2 9.6 14.5 9.6 23.2 0 18-14.5 32.8-32.6 32.8-18 0-32.8-14.7-32.8-32.8z"></path>
            <path fill="#ececec" stroke="#000" d="M303.3 80.6l31-32.5" marker-end="url(#arrowhead)"></path>
            <path fill="#ccc" d="M313.3 65.5c0-1.8 1.5-3.4 3.3-3.4 1 0 1.8.6 2.4 1 .6 1 1 1.7 1 2.6 0 2-1.5 3.4-3.4 3.4-1.8 0-3.4-1.6-3.4-3.5z"></path>
        </g>
        <g style="transform: rotateZ(225.543deg);">
            <path fill="#ececec" stroke="#000" d="M447.6 43.6c0-18 14.7-32.8 32.8-32.8 8.7 0 17 3.5 23.2 9.6 6.2 6.2 9.6 14.5 9.6 23.2 0 18-14.5 32.8-32.6 32.8-18 0-32.8-14.7-32.8-32.8z"></path>
            <path fill="#ececec" stroke="#000" d="M467 58.7l31-32.5" marker-end="url(#arrowhead)"></path>
            <path fill="#ccc" d="M477 43.6c0-1.8 1.6-3.4 3.4-3.4 1 0 1.8.4 2.4 1 .6.7 1 1.5 1 2.4 0 2-1.5 3.4-3.4 3.4-1.8 0-3.4-1.5-3.4-3.4z"></path>
        </g>
        <g style="transform: rotateZ(41.1951deg);">
            <path fill="#ececec" stroke="#000" d="M614.2 143.3c0-18 14.7-32.8 32.8-32.8 8.7 0 17 3.5 23.2 9.6 6.2 6.4 9.6 14.7 9.6 23.4 0 18-14.5 32.8-32.6 32.8-18 0-32.8-14.6-32.8-32.7z"></path>
            <path fill="#ececec" stroke="#000" d="M633.7 158.4l31-32.5" marker-end="url(#arrowhead)"></path>
            <path fill="#ccc" d="M643.7 143.3c0-1.8 1.5-3.4 3.3-3.4 1 0 1.8.2 2.4 1 .6.5 1 1.3 1 2.2 0 2-1.5 3.4-3.4 3.4-1.8 0-3.4-1.5-3.4-3.4z"></path>
        </g>
        <g style="transform: rotateZ(338.61deg);">
            <path fill="#ececec" stroke="#000" d="M481 155c0-18 14.7-32.8 32.8-32.8 8.7 0 17 3.5 23.2 9.6 6.2 6.2 9.6 14.5 9.6 23.2 0 18-14.5 32.8-32.6 32.8-18 0-32.8-14.7-32.8-32.8z"></path>
            <path fill="#ececec" stroke="#000" d="M500.5 170l31-32.4" marker-end="url(#arrowhead)"></path>
            <path fill="#ccc" d="M510.5 155c0-1.8 1.5-3.4 3.3-3.4 1 0 1.8.4 2.4 1 .6.7 1 1.5 1 2.4 0 2-1.5 3.4-3.4 3.4-1.8 0-3.4-1.5-3.4-3.4z"></path>
        </g>
        <g style="transform: rotateZ(93.615deg);">
            <path fill="#ececec" stroke="#000" d="M381.3 130.2c0-18 14.7-32.8 32.8-32.8 9 0 17 3.5 23.4 9.6 6.2 6.2 9.6 14.5 9.6 23.2 0 18-14.6 32.8-32.7 32.8-18 0-32.8-14.7-32.8-32.8z"></path>
            <path fill="#ececec" stroke="#000" d="M400.8 145.3l31-32.5" marker-end="url(#arrowhead)"></path>
            <path fill="#ccc" d="M410.8 130.2c0-1.8 1.5-3.4 3.3-3.4 1 0 2 .4 2.6 1 .6.7 1 1.5 1 2.4 0 2-1.5 3.4-3.4 3.4-1.7 0-3.3-1.5-3.3-3.4z"></path>
        </g>
        <g style="transform: rotateZ(147.604deg);">
            <path fill="#ececec" stroke="#000" d="M706 208c0-18 14.6-32.7 32.7-32.7 8.7 0 17 3.5 23.2 9.6 6 6 9.4 14.3 9.4 23 0 18-14.5 33-32.6 33-18 0-33-15-33-33z"></path>
            <path fill="#ececec" stroke="#000" d="M725.4 223.2l31-32.5" marker-end="url(#arrowhead)"></path>
            <path fill="#ccc" d="M735.4 208c0-1.7 1.5-3.3 3.3-3.3 1 0 1.8.4 2.4 1 .8.7 1 1.5 1 2.4 0 2-1.3 3.6-3.2 3.6-1.8 0-3.4-1.5-3.4-3.4z"></path>
        </g>
        <g style="transform: rotateZ(70.7788deg);">
            <path fill="#ececec" stroke="#000" d="M573.5 253.2c0-18 14.7-32.8 32.8-32.8 8.7 0 17 3.5 23.2 9.6 6.2 6.2 9.6 14.5 9.6 23.2 0 18-14.3 32.8-32.4 32.8-18 0-32.8-14.7-32.8-32.8z"></path>
            <path fill="#ececec" stroke="#000" d="M593 268.3l31-32.5" marker-end="url(#arrowhead)"></path>
            <path fill="#ccc" d="M603 253.2c0-1.8 1.5-3.4 3.3-3.4 1 0 1.8.4 2.4 1 .6.7 1 1.5 1 2.4 0 2-1.5 3.4-3.4 3.4-1.8 0-3.4-1.5-3.4-3.4z"></path>
        </g>
        <g style="transform: rotateZ(104.01deg);">
            <path fill="#ececec" stroke="#000" d="M752.5 293.3c0-18 14.7-32.8 32.8-32.8 8.7 0 17 3.5 23.2 9.6 6.2 6.4 9.6 14.7 9.6 23.4 0 18-14.3 32.8-32.4 32.8-18 0-32.8-14.6-32.8-32.7z"></path>
            <path fill="#ececec" stroke="#000" d="M772 308.4l31-32.5" marker-end="url(#arrowhead)"></path>
            <path fill="#ccc" d="M782 293.3c0-1.8 1.5-3.4 3.3-3.4 1 0 1.8.2 2.4 1 .6.5 1 1.3 1 2.2 0 2-1.5 3.4-3.4 3.4-1.8 0-3.4-1.5-3.4-3.4z"></path>
        </g>
        <g style="transform: rotateZ(308.07deg);">
            <path fill="#ececec" stroke="#000" d="M612 420c0-18 14.8-33 33-33 8.6 0 17 3.6 23 9.7 6.3 6.2 9.7 14.5 9.7 23.2 0 18-14.5 32.6-32.6 32.6-18 0-32.6-14.7-32.6-32.8z"></path>
            <path fill="#ececec" stroke="#000" d="M631.6 435l31-32.5" marker-end="url(#arrowhead)"></path>
            <path fill="#ccc" d="M641.6 420c0-2 1.5-3.5 3.3-3.5 1 0 1.6.4 2.2 1 .6.7 1 1.5 1 2.4 0 2-1.5 3.2-3.4 3.2-2 0-3.5-1.5-3.5-3.4z"></path>
        </g>
        <g style="transform: rotateZ(307.689deg);">
            <path fill="#ececec" stroke="#000" d="M573.5 494c0-18 14.7-32.7 32.8-32.7 8.7 0 17 3.5 23.2 9.6 6.2 6 9.6 14.3 9.6 23 0 18-14.3 33-32.4 33-18 0-32.8-15-32.8-33z"></path>
            <path fill="#ececec" stroke="#000" d="M593 509.2l31-32.5" marker-end="url(#arrowhead)"></path>
            <path fill="#ccc" d="M603 494c0-1.7 1.5-3.3 3.3-3.3 1 0 1.8.4 2.4 1 .6.7 1 1.5 1 2.4 0 2-1.5 3.6-3.4 3.6-1.8 0-3.4-1.5-3.4-3.4z"></path>
        </g>
        <g style="transform: rotateZ(5.03165deg);">
            <path fill="#ececec" stroke="#000" d="M456.3 305.6c0-18 14.7-32.8 32.8-32.8 9 0 17 3.5 23.4 9.6 6.2 6.2 9.6 14.5 9.6 23.2 0 18-14.6 32.8-32.7 32.8-18 0-32.8-14.7-32.8-32.8z"></path>
            <path fill="#ececec" stroke="#000" d="M475.8 320.7l31-32.5" marker-end="url(#arrowhead)"></path>
            <path fill="#ccc" d="M485.8 305.6c0-1.8 1.5-3.4 3.3-3.4 1 0 2 .4 2.6 1 .6.7 1 1.5 1 2.4 0 2-1.5 3.4-3.4 3.4-1.7 0-3.3-1.5-3.3-3.4z"></path>
        </g>
        <g style="transform: rotateZ(241.499deg);">
            <path fill="#ececec" stroke="#000" d="M395.2 481c0-18 14.7-32.8 32.8-32.8 8.7 0 17 3.5 23.2 9.6 6.2 6.2 9.6 14.5 9.6 23.2 0 18-14.5 32.8-32.6 32.8-18 0-32.8-14.7-32.8-32.8z"></path>
            <path fill="#ececec" stroke="#000" d="M414.7 496l31-32.4" marker-end="url(#arrowhead)"></path>
            <path fill="#ccc" d="M424.7 481c0-1.8 1.5-3.4 3.3-3.4 1 0 1.8.4 2.4 1 .6.7 1 1.5 1 2.4 0 2-1.5 3.4-3.4 3.4-1.8 0-3.4-1.5-3.4-3.4z"></path>
        </g>
        <g style="transform: rotateZ(112.137deg);">
            <path fill="#ececec" stroke="#000" d="M445.4 390.8c0-18 14.7-32.8 32.8-32.8 8.7 0 17 3.5 23.2 9.6 6.2 6.2 9.6 14.5 9.6 23.2 0 18-14.5 32.8-32.6 32.8-18 0-32.8-14.7-32.8-32.8z"></path>
            <path fill="#ececec" stroke="#000" d="M465 406l31-32.6" marker-end="url(#arrowhead)"></path>
            <path fill="#ccc" d="M475 390.8c0-1.8 1.4-3.4 3.2-3.4 1 0 1.8.4 2.4 1 .6.7 1 1.5 1 2.4 0 2-1.5 3.4-3.4 3.4-1.8 0-3.4-1.5-3.4-3.4z"></path>
        </g>
        <g style="transform: rotateZ(133.922deg);">
            <path fill="#ececec" stroke="#000" d="M310 379.2c0-18 14.7-32.8 32.8-32.8 8.7 0 17 3.5 23.2 9.6 6.2 6.2 9.6 14.5 9.6 23.2 0 18-14.5 32.8-32.6 32.8-18 0-32.8-14.7-32.8-32.8z"></path>
            <path fill="#ececec" stroke="#000" d="M329.5 394.3l31-32.5" marker-end="url(#arrowhead)"></path>
            <path fill="#ccc" d="M339.5 379.2c0-1.8 1.5-3.4 3.3-3.4 1 0 1.8.4 2.4 1 .6.7 1 1.5 1 2.4 0 2-1.5 3.4-3.4 3.4-1.8 0-3.4-1.5-3.4-3.4z"></path>
        </g>
        <g style="transform: rotateZ(90.4987deg);">
            <path fill="#ececec" stroke="#000" d="M366 261.2c0-18 14.7-32.8 32.8-32.8 8.7 0 17 3.5 23.2 9.6 6.2 6.2 9.6 14.5 9.6 23.2 0 18-14.5 32.8-32.6 32.8-18 0-32.8-14.7-32.8-32.8z"></path>
            <path fill="#ececec" stroke="#000" d="M385.5 276.3l31-32.5" marker-end="url(#arrowhead)"></path>
            <path fill="#ccc" d="M395.5 261.2c0-1.8 1.5-3.4 3.3-3.4 1 0 1.8.4 2.4 1 .6.7 1 1.5 1 2.4 0 2-1.5 3.4-3.4 3.4-1.8 0-3.4-1.5-3.4-3.4z"></path>
        </g>
        <g style="transform: rotateZ(168.006deg);">
            <path fill="#ececec" stroke="#000" d="M257 291c0-18 14.6-32.7 32.7-32.7 8.7 0 17 3.5 23.2 9.6 6 6 9.4 14.3 9.4 23 0 18-14.5 33-32.6 33-18 0-33-15-33-33z"></path>
            <path fill="#ececec" stroke="#000" d="M276.4 306.2l31-32.5" marker-end="url(#arrowhead)"></path>
            <path fill="#ccc" d="M286.4 291c0-1.7 1.5-3.3 3.3-3.3 1 0 1.8.4 2.4 1 .8.7 1 1.5 1 2.4 0 2-1.3 3.6-3.2 3.6-1.8 0-3.4-1.5-3.4-3.4z"></path>
        </g>
        <g style="transform: rotateZ(343.594deg);">
            <path fill="#ececec" stroke="#000" d="M222.7 153.5c0-18 14.7-32.8 32.8-32.8 8.7 0 17 3.5 23.2 9.6 6.2 6.2 9.6 14.5 9.6 23.2 0 18-14.5 32.8-32.6 32.8-18 0-32.8-14.7-32.8-32.8z"></path>
            <path fill="#ececec" stroke="#000" d="M242.2 168.6l31-32.5" marker-end="url(#arrowhead)"></path>
            <path fill="#ccc" d="M252.2 153.5c0-1.8 1.5-3.4 3.3-3.4 1 0 1.8.6 2.4 1 .4 1 1 1.7 1 2.6 0 2-1.7 3.4-3.6 3.4-1.8 0-3.4-1.6-3.4-3.5z"></path>
        </g>
        <g style="transform: rotateZ(212.011deg);">
            <path fill="#ececec" stroke="#000" d="M147.7 263.4c0-18 14.7-32.8 32.8-32.8 8.7 0 17 3.5 23.2 9.6 6.2 6.2 9.6 14.5 9.6 23.2 0 18-14.5 32.8-32.6 32.8-18 0-32.8-14.7-32.8-32.8z"></path>
            <path fill="#ececec" stroke="#000" d="M167.2 278.5l31-32.5" marker-end="url(#arrowhead)"></path>
            <path fill="#ccc" d="M177.2 263.4c0-1.8 1.5-3.4 3.3-3.4 1 0 1.8.4 2.4 1 .4.7 1 1.5 1 2.4 0 2-1.7 3.4-3.6 3.4-1.8 0-3.4-1.5-3.4-3.4z"></path>
        </g>
    </g>
</svg>
