<?xml version="1.0" standalone="no"?>
<!DOCTYPE svg PUBLIC "-//W3C//DTD SVG 20010904//EN"
 "http://www.w3.org/TR/2001/REC-SVG-20010904/DTD/svg10.dtd">
<svg version="1.0" xmlns="http://www.w3.org/2000/svg"
 width="223.000000pt" height="223.000000pt" viewBox="0 0 223.000000 223.000000"
 preserveAspectRatio="xMidYMid meet">
<metadata>
Created by potrace 1.11, written by Peter Selinger 2001-2013
</metadata>
<g transform="translate(0.000000,223.000000) scale(0.100000,-0.100000)"
fill="#000000" stroke="none">
<path d="M493 2097 c-58 -21 -155 -100 -223 -182 -90 -107 -187 -237 -216
-288 -47 -83 -20 -180 68 -245 46 -35 49 -39 43 -71 -23 -123 -45 -305 -45
-372 0 -254 117 -472 287 -535 26 -9 77 -40 113 -67 88 -66 246 -142 355 -169
128 -32 332 -32 459 0 105 26 233 84 320 145 50 35 69 43 94 39 48 -7 102 17
159 71 62 58 91 106 126 203 34 96 48 179 48 284 -1 105 -18 304 -32 380 -11
52 -10 55 12 69 45 29 97 90 114 135 36 94 -3 153 -165 253 -103 62 -137 96
-186 188 -89 164 -150 200 -270 159 -25 -8 -68 -29 -96 -46 l-49 -30 -67 17
c-157 40 -347 36 -506 -10 l-89 -26 -30 37 c-54 65 -145 90 -224 61z m161 -61
c72 -55 116 -198 116 -381 0 -182 -40 -298 -117 -347 -33 -20 -50 -23 -128
-22 -169 1 -381 96 -434 195 -37 70 -27 96 97 261 226 300 354 380 466 294z
m1055 -12 c17 -14 52 -64 78 -110 57 -102 82 -127 220 -218 125 -83 151 -116
133 -170 -21 -65 -65 -112 -137 -148 -63 -31 -74 -33 -169 -33 -95 0 -103 2
-150 30 -39 25 -56 44 -81 95 -58 116 -65 250 -22 428 12 46 18 90 15 98 -6
16 -49 19 -77 4 -15 -9 -17 -15 -9 -30 6 -12 16 -17 26 -13 13 5 15 2 10 -14
-37 -117 -46 -281 -20 -392 48 -214 205 -297 445 -236 33 8 36 -1 55 -195 24
-249 14 -366 -42 -505 -71 -175 -201 -268 -277 -197 -25 24 -63 21 -53 -4 3
-8 8 -20 11 -27 7 -16 -107 -92 -197 -129 -128 -54 -210 -70 -358 -71 -192 -1
-348 43 -490 135 l-65 43 50 2 c102 5 136 13 133 31 -3 14 -20 17 -129 17
-124 0 -125 0 -201 38 -50 24 -90 53 -113 80 -103 120 -155 339 -125 527 5 30
14 93 20 140 16 130 5 123 123 81 94 -33 111 -36 214 -36 108 0 113 1 154 30
95 67 133 178 132 385 0 106 -5 152 -22 214 -12 44 -18 83 -14 87 23 22 167
51 283 56 142 6 294 -15 316 -45 10 -14 19 -11 80 25 75 44 92 50 171 52 42 1
57 -4 82 -25z"/>
<path d="M1536 1199 c-64 -50 -68 -128 -9 -179 110 -97 256 68 149 169 -37 35
-103 39 -140 10z m54 -24 c16 -19 10 -45 -15 -61 -39 -26 -86 31 -53 64 16 16
53 15 68 -3z m5 -131 c0 -10 -8 -20 -17 -22 -18 -3 -26 27 -11 42 12 11 28 0
28 -20z"/>
<path d="M819 1172 c-24 -21 -32 -39 -36 -73 -5 -41 -2 -50 27 -82 75 -86 200
-37 200 79 0 28 -8 44 -34 70 -29 29 -41 34 -80 34 -36 0 -52 -6 -77 -28z m66
-16 c29 -43 -8 -80 -59 -60 -22 8 -21 60 2 73 27 16 40 13 57 -13z m9 -115 c3
-4 0 -15 -7 -24 -15 -21 -43 -6 -34 17 7 17 32 22 41 7z"/>
<path d="M1194 1146 c-51 -16 -66 -25 -59 -36 3 -5 20 -3 38 4 62 26 129 29
191 8 68 -23 86 -10 24 18 -50 23 -132 25 -194 6z"/>
<path d="M1180 988 c-213 -75 -372 -260 -341 -399 16 -73 117 -149 198 -149
12 0 38 -18 60 -39 59 -60 154 -77 244 -46 47 17 89 51 89 72 0 9 15 13 48 13
57 0 127 33 156 73 28 38 33 137 11 213 -35 122 -93 203 -176 249 -75 41 -194
46 -289 13z m255 -47 c129 -57 226 -305 159 -407 -32 -48 -133 -58 -242 -24
-80 25 -134 25 -214 0 -34 -11 -80 -20 -101 -20 -80 0 -157 66 -157 136 0 52
56 149 117 203 66 59 179 119 248 131 64 11 139 4 190 -19z m-111 -471 c36
-12 66 -25 66 -31 0 -16 -62 -48 -105 -55 -50 -7 -113 9 -149 37 -32 26 -27
32 39 52 66 21 72 20 149 -3z"/>
<path d="M1161 793 c-5 -10 -14 -44 -21 -75 -8 -43 -19 -64 -42 -83 -43 -37
-30 -40 24 -6 76 48 106 110 78 162 -13 24 -26 24 -39 2z"/>
<path d="M1372 788 c-19 -19 -14 -41 17 -88 32 -47 98 -103 112 -94 14 9 10
34 -5 34 -8 0 -24 12 -36 27 -22 28 -23 55 -5 111 7 20 4 22 -32 22 -21 0 -44
-5 -51 -12z"/>
</g>
</svg>
